<svg xmlns="http://www.w3.org/2000/svg" xmlns:xlink="http://www.w3.org/1999/xlink" viewBox="0 0 512 512"><defs><style>.cls-1{fill:url(#linear-gradient);}.cls-2{fill:url(#linear-gradient-2);}.cls-3{fill:url(#linear-gradient-3);}.cls-4{fill:url(#linear-gradient-4);}.cls-5{fill:url(#linear-gradient-5);}</style><linearGradient id="linear-gradient" x1="39.22" y1="197.55" x2="224.03" y2="197.55" gradientUnits="userSpaceOnUse"><stop offset="0.15" stop-color="#8f53a1"/><stop offset="0.85" stop-color="#ec008c"/></linearGradient><linearGradient id="linear-gradient-2" x1="71.6" y1="288.12" x2="220.25" y2="288.12" gradientUnits="userSpaceOnUse"><stop offset="0.15" stop-color="#39bb9d"/><stop offset="0.85" stop-color="#00b9f2"/></linearGradient><linearGradient id="linear-gradient-3" x1="229.51" y1="240.26" x2="304.13" y2="240.26" gradientUnits="userSpaceOnUse"><stop offset="0.15" stop-color="#72bf44"/><stop offset="0.85" stop-color="#d7df23"/></linearGradient><linearGradient id="linear-gradient-4" x1="305.12" y1="240.04" x2="375.96" y2="240.04" xlink:href="#linear-gradient-3"/><linearGradient id="linear-gradient-5" x1="385.88" y1="240.14" x2="466.43" y2="240.14" xlink:href="#linear-gradient-3"/></defs><g id="Artboard_1" data-name="Artboard 1"><path class="cls-1" d="M124.22,192c0-39-2-86.75,38.25-98.75C198.72,83,225.47,107,224,140c-3,39-55,48.5-69.5,16.75-9.75-20.25,11.75-26.25,17.25-13.25C176,159,202.22,158,203.47,138c2.75-18-15.5-33-37-24.25-26.25,12-22,46-22.5,78v83.75c0,28.5-35,35.75-52.5,21.75-17.5,14-52.25,7-52.25-21.75V190.76c1.5-13.75,19.25-13,19.75,1v84c0,14,22.75,15.5,22.75.25V190.76c.75-13.25,19.5-13.25,19.75,0v85c0,14,22.75,15.5,22.75.25Z"/><path class="cls-2" d="M171.71,296c-1,38.5.5,86.5-39.75,97.5-36.75,9.25-62.25-15.5-60.25-48.75C75.21,306.26,127.46,298,141,330c9.25,20.75-12.25,26-17.75,12.75-3.75-15.5-30-15.5-31.25,4.75-3,17.5,15,33.25,36.25,25.5C155,361.76,151,327.51,152,295.26V190.76c1.25-10.25,11.5-12.5,16.75-6.75a42.55,42.55,0,0,1,16.75-3.25c47.25,0,45.5,65.25,0,63.5a31.14,31.14,0,0,1-13.75-3Zm0-85v2.5a15.16,15.16,0,1,0,15-16.5A15.4,15.4,0,0,0,171.71,211Z"/><path class="cls-3" d="M245,240.51c-27.75-16.5-16.75-65.25,22-64.25,28.25.75,41.75,24.5,34.75,51.5-5.25,20.25-19,41-33.75,56.75h27.75c11.75,1,11,19.75-1,19.75h-48c-8.75-.25-12.25-7-7.75-14.25,14-19.5,31.75-38.5,41.25-61.25,5.25-12,1.5-32.5-14-33.75-19-1.5-24,22.5-14,26.75C265.71,230.51,258.21,245.76,245,240.51Z"/><path class="cls-4" d="M355.46,183c0-8.75,20.5-9.5,20.5.25V293c-.5,14-18.5,14.75-20,1V255.76H312c-8.5,0-8.25-5.25-3.75-16.5l21-54c6.75-13.25,28-11,22.5,0l-18,50.25,21.75.25Z"/><path class="cls-5" d="M403.21,243.51c-25.5-21.25-10-67.75,25.25-67.5,37.75.25,52.5,51,20.25,67.25,24.25,6.75,29.25,61-21.5,61C377.21,304.26,377,253.51,403.21,243.51ZM428,250.26c-28-.5-25,39.75-.5,37.75C452.46,287.51,450.46,250,428,250.26Zm.5-11c22.75.75,23.5-45.25-.75-45C404.21,196.26,407,239.51,428.46,239.26Z"/></g></svg>